<svg width="210mm" height="297mm" version="1.1" viewBox="0 0 210 297" xmlns="http://www.w3.org/2000/svg">
 <g id="_x35_0._Nucleus_1_" transform="matrix(.28222 0 0 .28222 36.588 90.261)">
  <g id="XMLID_98_">
   <g transform="scale(1 .94565)" fill="#5aa02c">
    <path d="m429.26 93.16c0 3.37-0.7 6.57-1.96 9.47-3.66 8.48-12.1 14.41-21.93 14.41-13.19 0-23.88-10.69-23.88-23.88 0-1.61 0.16-3.18 0.46-4.7 2.18-10.94 11.84-19.19 23.42-19.19 13.19 0 23.89 10.7 23.89 23.89z" fill="#000" fill-opacity=".50286"/>
   </g>
   <g transform="scale(1 .94565)" fill="none">
    <path d="m315.04 428.2c4.97 4.36 8.11 10.78 8.11 17.92 0 13.19-10.7 23.88-23.89 23.88-7.91 0-14.93-3.84-19.27-9.77-2.91-3.95-4.62-8.83-4.62-14.11 0-13.19 10.7-23.89 23.89-23.89 6.05 0 11.57 2.24 15.78 5.97z" fill="none"/>
   </g>
   <g transform="scale(1 .94565)" fill="#f00" fill-opacity=".49143">
    <path d="m250.67 201.58c20.61 0 37.32 16.71 37.32 37.33 0 20.61-16.71 37.32-37.32 37.32s-37.32-16.71-37.32-37.32c0-20.62 16.71-37.33 37.32-37.33z" fill="#f00" fill-opacity=".49143"/>
   </g>
   <g transform="scale(1 .94565)" fill="#00f" fill-opacity=".51429">
    <path d="m46.901 153.46c13.19 0 23.89 10.69 23.89 23.88 0 10.53-6.81 19.46-16.25 22.64-2.4 0.81-4.97 1.25-7.64 1.25-13.19 0-23.88-10.69-23.88-23.89 0-12.33 9.34-22.47 21.33-23.75 0.84-0.08 1.69-0.13 2.55-0.13z" fill="#00f" fill-opacity=".51429"/>
   </g>
   <g transform="scale(1 .94565)" fill="#f9f9f9">
    <path d="m250.67 477.81c-37.381 0-72.26-31.012-95.695-85.083-11.319-26.115-19.458-56.025-24.193-88.901-3.027-21.045-4.562-42.886-4.562-64.915 0-22.037 1.535-43.88 4.562-64.924 4.736-32.882 12.876-62.792 24.193-88.902 23.434-54.073 58.314-85.085 95.695-85.085 37.38 0 72.26 31.012 95.695 85.084 11.319 26.126 19.459 56.04 24.192 88.911 3.027 21.045 4.562 42.885 4.562 64.915s-1.535 43.87-4.562 64.914c-4.734 32.878-12.874 62.789-24.192 88.903-6.797 15.689-14.624 29.614-23.263 41.389l-16.125-11.831c7.755-10.57 14.833-23.191 21.037-37.51 10.463-24.142 18.329-53.119 22.748-83.8 2.892-20.103 4.358-40.984 4.358-62.065 0-21.08-1.466-41.962-4.358-62.066-4.418-30.675-12.284-59.656-22.748-83.808-20.117-46.415-48.308-73.036-77.344-73.036-29.037 0-57.228 26.621-77.345 73.037-10.462 24.137-18.328 53.114-22.748 83.799-2.892 20.102-4.358 40.987-4.358 62.074 0 21.081 1.466 41.962 4.358 62.066 4.418 30.679 12.284 59.656 22.748 83.797 20.117 46.416 48.308 73.037 77.345 73.037 8.297 0 16.589-2.16 24.645-6.42l9.35 17.68c-10.968 5.8-22.405 8.74-33.995 8.74z" fill="#f9f9f9"/>
    <path d="m254.39 375.19-7.433-18.567c18.814-7.532 37.635-16.706 55.938-27.268 18.243-10.521 35.598-22.235 51.583-34.817 24.36-19.161 45.523-40.459 61.204-61.591 30.127-40.62 39.08-78.342 24.561-103.49-4.209-7.287-10.334-13.454-18.205-18.328l10.529-17.004c10.708 6.631 19.117 15.153 24.995 25.331 18.692 32.377 9.281 78.085-25.818 125.41-16.963 22.861-38.798 44.862-64.899 65.393-16.734 13.17-34.888 25.425-53.957 36.423-19.121 11.035-38.803 20.628-58.498 28.511z" fill="#f9f9f9"/>
    <path d="m138.4 400.29c-45.126 1e-3 -78.906-14.722-94.614-41.936-18.694-32.379-9.284-78.088 25.819-125.41 16.989-22.896 38.825-44.9 64.9-65.403 16.68-13.127 34.829-25.38 53.94-36.418 19.054-11.005 38.742-20.599 58.515-28.514 30.851-12.334 60.825-20.237 89.093-23.491 16.791-1.938 32.592-2.143 46.964-0.609l-2.122 19.887c-12.907-1.377-27.224-1.178-42.552 0.591-26.136 3.008-55.166 10.682-83.954 22.191-18.887 7.561-37.71 16.734-55.941 27.264-18.288 10.563-35.641 22.277-51.577 34.819-24.335 19.134-45.497 40.434-61.204 61.601-30.131 40.616-39.083 78.337-24.56 103.49 14.518 25.152 51.661 36.25 101.9 30.456 26.145-3.01 55.171-10.684 83.943-22.191l7.427 18.569c-30.83 12.331-60.801 20.234-89.079 23.49-9.343 1.077-18.331 1.609-26.901 1.609z" fill="#f9f9f9"/>
    <path d="m362.95 400.29c-8.574 0-17.557-0.531-26.903-1.61-27.716-3.19-57.075-10.851-87.287-22.774h-0.013l-1.799-0.715c-19.673-7.871-39.356-17.464-58.503-28.513-19.116-11.031-37.267-23.287-53.95-36.426-26.097-20.527-47.931-42.528-64.893-65.387-10.203-13.771-18.349-27.519-24.214-40.865l18.31-8.047c5.267 11.982 12.658 24.431 21.971 37 15.675 21.126 36.839 42.423 61.197 61.584 15.937 12.552 33.288 24.265 51.576 34.818 17.999 10.387 36.475 19.422 54.934 26.864l1.01 0.402c28.788 11.509 57.817 19.183 83.951 22.191 50.244 5.798 87.388-5.303 101.91-30.455 14.523-25.155 5.571-62.877-24.56-103.49-15.68-21.131-36.844-42.428-61.202-61.588-15.929-12.546-33.284-24.263-51.587-34.829-18.301-10.561-37.121-19.735-55.937-27.267-28.771-11.506-57.801-19.18-83.947-22.189-50.246-5.803-87.388 5.304-101.9 30.463-4.141 7.176-6.415 15.423-6.759 24.51l-19.985-0.757c0.468-12.371 3.638-23.726 9.421-33.749 18.69-32.39 62.982-47.091 121.52-40.336 28.28 3.255 58.254 11.158 89.087 23.489 19.699 7.886 39.381 17.479 58.504 28.514 19.131 11.044 37.286 23.302 53.959 36.435 26.096 20.526 47.931 42.527 64.894 65.387 35.103 47.319 44.514 93.028 25.819 125.41-15.705 27.21-49.49 41.934-94.613 41.934z" fill="#f9f9f9"/>
    <path d="m250.67 286.23c-26.092 0-47.32-21.228-47.32-47.32 0-26.098 21.228-47.33 47.32-47.33s47.32 21.232 47.32 47.33c-1e-3 26.092-21.228 47.32-47.32 47.32zm0-74.65c-15.064 0-27.32 12.26-27.32 27.33 0 15.064 12.256 27.32 27.32 27.32s27.32-12.256 27.32-27.32c-1e-3 -15.07-12.256-27.33-27.32-27.33z" fill="#f9f9f9"/>
    <path d="m46.902 211.23c-18.682 0-33.88-15.203-33.88-33.89 0-17.366 13.013-31.851 30.268-33.693l0.113-0.012c1.236-0.118 2.38-0.175 3.499-0.175 18.687 0 33.89 15.198 33.89 33.88 0 14.564-9.266 27.471-23.058 32.117-3.484 1.176-7.131 1.773-10.832 1.773zm-1.543-47.691c-7.038 0.779-12.338 6.702-12.338 13.801 0 7.659 6.227 13.89 13.88 13.89 1.522 0 3.017-0.244 4.441-0.725 5.654-1.905 9.448-7.195 9.448-13.166 0-7.653-6.231-13.88-13.89-13.88-0.462 1e-3 -0.967 0.027-1.541 0.08z" fill="#f9f9f9"/>
    <path d="m405.37 127.04c-18.682 0-33.88-15.199-33.88-33.88 0-2.219 0.218-4.452 0.649-6.635l4e-3 -0.02c3.145-15.781 17.119-27.235 33.227-27.235 18.687 0 33.89 15.203 33.89 33.89 0 4.669-0.938 9.196-2.788 13.455-5.352 12.399-17.564 20.425-31.102 20.425zm-13.61-36.639c-0.179 0.91-0.27 1.838-0.27 2.759 0 7.654 6.227 13.88 13.88 13.88 5.549 0 10.554-3.287 12.749-8.373 0.76-1.751 1.141-3.596 1.141-5.507 0-7.659-6.231-13.89-13.89-13.89-6.596 0-12.318 4.68-13.61 11.131z" fill="#f9f9f9"/>
    <path d="m299.26 480c-10.766 0-20.986-5.183-27.34-13.864-4.279-5.808-6.55-12.738-6.55-20.016 0-18.687 15.203-33.89 33.89-33.89 8.269 0 16.22 3.008 22.394 8.469 7.307 6.419 11.497 15.684 11.497 25.421 0 18.682-15.204 33.88-33.891 33.88zm0-47.77c-7.659 0-13.89 6.231-13.89 13.89 0 2.979 0.924 5.807 2.671 8.179 2.658 3.632 6.741 5.701 11.219 5.701 7.659 0 13.89-6.227 13.89-13.88 0-3.988-1.715-7.78-4.705-10.403l-0.037-0.032c-2.514-2.228-5.763-3.455-9.148-3.455z" fill="#f9f9f9"/>
   </g>
  </g>
 </g>
</svg>
